HIERARCHY
ROOT Root
{
	OFFSET 0.00000 0.00000 0.00000
	CHANNELS 6 Xposition Yposition Zposition Zrotation Xrotation Yrotation
	JOINT Hips
	{
		OFFSET 0 0 0	
		CHANNELS 3 Zrotation Xrotation Yrotation
		JOINT Spine
		{
			OFFSET 0 4 0	
			CHANNELS 3 Zrotation Xrotation Yrotation
			JOINT Spine1
			{
				OFFSET 0 19.4 0	
				CHANNELS 3 Zrotation Xrotation Yrotation
				JOINT Spine2
				{
					OFFSET 0 16.6 0	
					CHANNELS 3 Zrotation Xrotation Yrotation
					JOINT LeftCollar
					{
						OFFSET 0 10 0	
						CHANNELS 3 Zrotation Xrotation Yrotation
						JOINT LeftArm
						{
							OFFSET 15.6 -2 3	
							CHANNELS 3 Zrotation Xrotation Yrotation
							JOINT LeftForeArm
							{
								OFFSET 3.5 -27 -1	
								CHANNELS 3 Zrotation Xrotation Yrotation
								JOINT LeftHand
								{
									OFFSET 1 -27 1	
									CHANNELS 3 Zrotation Xrotation Yrotation
									End Site
									{
										OFFSET 0 -15 0
									}
								}
							}
						}
					}
					JOINT RightCollar
					{
						OFFSET 0 10 0	
						CHANNELS 3 Zrotation Xrotation Yrotation
						JOINT RightArm
						{
							OFFSET -15.6 -2 3	
							CHANNELS 3 Zrotation Xrotation Yrotation
							JOINT RightForeArm
							{
								OFFSET -3.5 -27 -1	
								CHANNELS 3 Zrotation Xrotation Yrotation
								JOINT RightHand
								{
									OFFSET -1 -27 1	
									CHANNELS 3 Zrotation Xrotation Yrotation
									End Site
									{
										OFFSET 0 -15 0
									}
								}
							}
						}
					}
					JOINT Neck
					{
						OFFSET 0 10 0	
						CHANNELS 3 Zrotation Xrotation Yrotation
						JOINT Head
						{
							OFFSET 0 12.7 3	
							CHANNELS 3 Zrotation Xrotation Yrotation
							End Site
							{
								OFFSET 0 12.7 3
							}
						}
					}
				}
			}
		}
	}
	JOINT LeftHip
	{
		OFFSET 0 0 0	
		CHANNELS 3 Zrotation Xrotation Yrotation
		JOINT LeftUpLeg
		{
			OFFSET 8.8 -6 0	
			CHANNELS 3 Zrotation Xrotation Yrotation
			JOINT LeftLeg
			{
				OFFSET 0 -39 2	
				CHANNELS 3 Zrotation Xrotation Yrotation
				JOINT LeftFoot
				{
					OFFSET 0 -43 -2	
					CHANNELS 3 Zrotation Xrotation Yrotation
					JOINT LeftFootFront
					{
						OFFSET 0 -7 8.5	
						CHANNELS 3 Zrotation Xrotation Yrotation
						End Site
						{
							OFFSET 0 -0.5 9
						}
					}
				}
				JOINT LeftHeel
				{
					OFFSET 0 -43 -2	
					CHANNELS 3 Zrotation Xrotation Yrotation
					End Site
					{
						OFFSET 0 -7.5 -5
					}
				}
			}
		}
	}
	JOINT RightHip
	{
		OFFSET 0 0 0	
		CHANNELS 3 Zrotation Xrotation Yrotation
		JOINT RightUpLeg
		{
			OFFSET -8.8 -6 0	
			CHANNELS 3 Zrotation Xrotation Yrotation
			JOINT RightLeg
			{
				OFFSET 0 -39 2	
				CHANNELS 3 Zrotation Xrotation Yrotation
				JOINT RightFoot
				{
					OFFSET 0 -43 -2	
					CHANNELS 3 Zrotation Xrotation Yrotation
					JOINT RightFootFront
					{
						OFFSET 0 -7 8.5	
						CHANNELS 3 Zrotation Xrotation Yrotation
						End Site
						{
							OFFSET 0 -0.5 9
						}
					}
				}
				JOINT RightHeel
				{
					OFFSET 0 -43 -2	
					CHANNELS 3 Zrotation Xrotation Yrotation
					End Site
					{
						OFFSET 0 -7.5 -5
					}
				}
			}
		}
	}
}
MOTION
Frames: 11
Frame Time: 0.025
-23.514 93.691 -21.414 -0 0 -0 2.0432 2.7219 149.66 2.2415 1.9765 -0.080854 2.2415 1.9765 -0.080855 1.8825 1.6605 -0.062713 -0 0 -0 15.669 -11.412 -4.788 -50.664 -43.169 -17.344 0.16043 -0.13719 0.94215 -0 0 -0 -17.473 -15.513 8.449 63.435 -35.629 36.418 -0.35309 -0.65522 -1.8823 -0 0 -0 -0 0 -0 2.0432 2.7219 149.66 -1.1269 -5.9862 -14.677 -15.335 10.676 2.5611 -0 0 -0 -4.2689e-07 -2.783e-15 7.4705e-07 -0 0 -0 2.0432 2.7219 149.66 -9.8984 -19.381 0.33026 16.962 46.035 -35.261 -0 0 -0 0 0 -6.4033e-07 -0 0 -0 
-22.739 93.828 -21.224 -0 0 -0 2.0694 2.4043 151.03 2.0746 1.7447 0.25842 2.0746 1.7447 0.25842 1.7431 1.4649 0.22131 -0 0 -0 15.318 -10.052 -4.1186 -48.017 -43.618 -12.304 0.1366 -0.037006 0.45327 -0 0 -0 -15.217 -13.624 2.4446 61.861 -36.196 31.058 -0.22953 -0.7962 -1.6489 -0 0 -0 -0 0 -0 2.0694 2.4043 151.03 -0.25881 -6.1123 -13.303 -15.622 12.739 0.47691 -0 0 -0 2.7789e-07 -1.8178 4.0603e-06 -0 0 -0 2.0694 2.4043 151.03 -10.214 -19.437 0.30039 18.602 46.194 -35.78 -0 0 -0 -0 0 9.0713e-07 -0 0 -0 
-21.794 93.963 -20.979 -0 0 -0 2.1393 2.3031 152.15 1.7087 1.5683 0.73868 1.7087 1.5683 0.73868 1.4366 1.3159 0.62361 -0 0 -0 14.831 -8.7156 -2.9248 -44.72 -43.408 -6.694 -0.16502 0.06228 -0.2861 -0 0 -0 -12.802 -12.503 -5.1343 60.719 -36.863 22.575 0.0096523 -0.81646 -1.0413 -0 0 -0 -0 0 -0 2.1393 2.3031 152.15 0.60368 -6.0029 -11.747 -15.176 15.28 -2.082 -0 0 -0 7.2616e-07 -4.0718 -3.605e-06 -0 0 -0 2.1393 2.3031 152.15 -10.12 -19.744 0.20335 19.84 46.869 -36.007 -0 0 -0 0 0 -4.2689e-07 -0 0 -0 
-20.692 94.091 -20.674 -0 0 -0 2.2618 2.3452 153.02 1.2074 1.3707 1.2818 1.2074 1.3707 1.2818 1.0163 1.1496 1.0787 -0 0 -0 14.577 -7.5222 -0.96975 -41.915 -42.135 -2.4037 -0.63768 0.088316 -0.98316 -0 0 -0 -10.8 -11.981 -13.509 59.776 -37.916 11.578 0.47227 -0.48528 -0.56541 -0 0 -0 -0 0 -0 2.2618 2.3452 153.02 1.4925 -5.6176 -9.9604 -14.071 17.913 -5.2462 -0 0 -0 -3.0535e-08 -6.5184 -5.3621e-07 -0 0 -0 2.2618 2.3452 153.02 -9.5535 -20.218 0.35438 20.977 47.831 -36.288 -0 0 -0 0 0 -5.3361e-07 -0 0 -0 
-19.465 94.209 -20.32 -0 0 -0 2.48 2.4354 153.73 0.6795 1.2125 1.7072 0.6795 1.2125 1.7072 0.5732 1.0171 1.435 -0 0 -0 14.927 -6.6112 1.9183 -41.182 -40.117 -1.3693 -0.93289 0.036612 -0.72825 -0 0 -0 -9.555 -11.496 -20.346 58.932 -40.445 -1.606 0.85684 0.19092 -0.34542 -0 0 -0 -0 0 -0 2.48 2.4354 153.73 2.4313 -5.0777 -8.2261 -12.739 20.153 -9.2605 -0 0 -0 9.4186e-07 -8.5895 1.141e-06 -0 0 -0 2.48 2.4354 153.73 -8.6168 -20.586 0.92357 22.379 48.692 -37.046 -0 0 -0 -0 0 1.0672e-07 -0 0 -0 
-18.156 94.317 -19.928 -0 0 -0 2.8266 2.5245 154.43 0.22888 1.2007 1.7809 0.22888 1.2007 1.7809 0.19476 1.0081 1.4963 -0 0 -0 16.178 -6.0989 6.0769 -43.448 -37.639 -3.0482 -0.87889 -0.046886 0.10448 -0 0 -0 -9.1573 -10.48 -23.499 58.65 -44.975 -16.705 0.59669 0.82792 0.45943 -0 0 -0 -0 0 -0 2.8266 2.5245 154.43 3.3914 -4.4974 -7.0851 -11.524 21.973 -12.699 -0 0 -0 8.9417e-07 -10.442 4.032e-07 -0 0 -0 2.8266 2.5245 154.43 -7.4986 -20.537 1.5395 23.893 49.227 -38.133 -0 0 -0 8.5377e-07 3.1806e-15 4.2689e-07 -0 0 -0 
-16.819 94.411 -19.512 -0 0 -0 3.3065 2.5605 155.08 -0.0356 1.3818 1.5026 -0.035599 1.3818 1.5026 -0.027467 1.1607 1.2621 -0 0 -0 18.441 -6.1319 11.61 -48.538 -34.457 -5.028 -0.47942 -0.15022 0.3821 -0 0 -0 -9.5979 -9.1387 -22.801 58.477 -50.637 -32.318 -0.059909 0.85591 2.0901 -0 0 -0 -0 0 -0 3.3065 2.5605 155.08 4.4073 -3.9815 -6.631 -10.385 23.539 -13.193 -0 0 -0 2.0662e-07 -12.609 -2.0172e-06 -0 0 -0 3.3065 2.5605 155.08 -6.2481 -20.143 1.4299 24.695 49.772 -38.546 -0 0 -0 -8.5377e-07 -3.1806e-15 4.2689e-07 -0 0 -0 
-15.524 94.489 -19.094 -0 0 -0 3.7867 2.4166 155.32 -0.021612 1.6237 1.2507 -0.021612 1.6237 1.2507 -0.015771 1.3639 1.0505 -0 0 -0 21.132 -6.6167 16.993 -54.625 -31.26 -5.0434 -0.048468 -0.23794 0.077228 -0 0 -0 -10.674 -7.8321 -19.795 56.959 -56.225 -45.459 -0.26451 0.33704 3.17 -0 0 -0 -0 0 -0 3.7867 2.4166 155.32 5.4826 -3.664 -6.275 -9.1336 24.843 -10.969 -0 0 -0 3.5198e-07 -14.925 -5.997e-07 -0 0 -0 3.7867 2.4166 155.32 -4.9501 -19.786 0.43234 24.179 50.672 -37.14 -0 0 -0 -0 0 6.4033e-07 -0 0 -0 
-14.35 94.549 -18.701 -0 0 -0 4.0488 2.0953 154.95 0.21254 1.7217 1.2577 0.21254 1.7217 1.2577 0.18107 1.4459 1.0568 -0 0 -0 23.286 -7.2054 19.84 -59.541 -30.121 -2.3907 0.23564 -0.18082 -0.42562 -0 0 -0 -12.441 -6.4404 -16.472 53.658 -60.914 -53.929 -0.18551 -0.13517 2.7752 -0 0 -0 -0 0 -0 4.0488 2.0953 154.95 6.4512 -3.5687 -5.6123 -7.7752 25.551 -8.8695 -0 0 -0 6.3829e-08 -16.486 4.4059e-07 -0 0 -0 4.0488 2.0953 154.95 -3.9543 -19.43 -0.78371 22.515 51.499 -33.376 -0 0 -0 0 0 -4.2689e-07 -0 0 -0 
-13.372 94.589 -18.362 -0 0 -0 3.9764 1.7731 154.28 0.3738 1.6943 1.2833 0.3738 1.6943 1.2833 0.31653 1.4227 1.0787 -0 0 -0 24.631 -7.6506 19.217 -61.954 -32.558 1.8732 0.31466 -0.014495 -0.5935 -0 0 -0 -15.021 -5.3826 -15.018 50.238 -63.151 -57.229 -0.4113 -0.23345 1.637 -0 0 -0 -0 0 -0 3.9764 1.7731 154.28 7.1302 -3.5995 -4.8727 -6.6107 25.526 -8.8247 -0 0 -0 9.8846e-08 -16.98 6.6218e-07 -0 0 -0 3.9764 1.7731 154.28 -3.3526 -18.809 -1.7096 19.637 51.636 -26.961 -0 0 -0 8.5377e-07 -4.7708e-15 -6.4033e-07 -0 0 -0 
-12.651 94.611 -18.106 -0 0 -0 3.521 1.5684 153.63 0.092572 1.6235 1.1135 0.092572 1.6235 1.1135 0.079878 1.3636 0.93545 -0 0 -0 26.123 -7.8588 16.427 -61.932 -37.531 6.6526 0.27484 0.12227 -0.32761 -0 0 -0 -17.954 -5.2077 -16.82 48.928 -61.386 -55.556 -0.63943 -0.24787 0.59568 -0 0 -0 -0 0 -0 3.521 1.5684 153.63 7.4243 -3.6999 -4.3011 -5.9287 24.992 -10.104 -0 0 -0 6.6936e-07 -16.814 1.6093e-06 -0 0 -0 3.521 1.5684 153.63 -2.9915 -17.917 -2.858 14.533 50.835 -16.909 -0 0 -0 -0 0 6.4033e-07 -0 0 -0 
